<?xml version="1.0" encoding="UTF-8"?>
<svg version="1.1" xmlns="http://www.w3.org/2000/svg" width="500" height="500">
<path d="M0 0 C0.8367627 0.14953125 1.67352539 0.2990625 2.53564453 0.453125 C47.97390003 8.9746472 90.96470766 33.07888278 124 65 C124.62229492 65.60038086 125.24458984 66.20076172 125.88574219 66.81933594 C133.78543064 74.48167772 141.32893158 82.22164462 148 91 C148.41668945 91.54027832 148.83337891 92.08055664 149.26269531 92.63720703 C156.94769667 102.63443528 163.65912542 113.10740843 170 124 C170.3619043 124.61246582 170.72380859 125.22493164 171.09667969 125.85595703 C192.27918079 162.00810125 201.477823 205.21799987 201.375 246.8125 C201.37418427 248.07151123 201.37418427 248.07151123 201.37335205 249.35595703 C201.19037921 311.36179369 177.15371334 370.65536812 135 416 C133.72405626 417.45386418 132.45294871 418.91199179 131.1875 420.375 C126.33295455 425.92626263 126.33295455 425.92626263 124 428 C123.34 428 122.68 428 122 428 C122 428.66 122 429.32 122 430 C120.0859375 431.77734375 120.0859375 431.77734375 117.375 433.9375 C116.36695313 434.741875 115.35890625 435.54625 114.3203125 436.375 C113.50675293 437.01695312 113.50675293 437.01695312 112.67675781 437.671875 C111.00143192 438.9988658 109.33978554 440.34152713 107.6796875 441.6875 C83.56189439 461.11418125 56.50924335 475.6114684 27 485 C26.16774902 485.26941406 25.33549805 485.53882813 24.47802734 485.81640625 C3.23253527 492.60971285 -18.71096773 496 -41 496 C-41 467.62 -41 439.24 -41 410 C-32.42 409.01 -23.84 408.02 -15 407 C23.03390716 399.26054215 55.64319889 382.49177981 84 356 C85.37091797 354.74509766 85.37091797 354.74509766 86.76953125 353.46484375 C118.92302753 323.26581837 140.00988553 276.58306262 142.2578125 232.53125 C142.30359652 231.02102213 142.34279011 229.51057834 142.375 228 C142.40110352 227.30583984 142.42720703 226.61167969 142.45410156 225.89648438 C142.47264847 220.4118979 141.01144399 217.40941708 138 213 C132.84286183 209.03297064 127.59978533 208.87515354 121.26953125 208.85473633 C120.61358978 208.85137772 119.95764832 208.8480191 119.28182983 208.84455872 C117.12536701 208.83510207 114.96898223 208.83310851 112.8125 208.83203125 C111.30704721 208.82881582 109.80159472 208.82545153 108.29614258 208.82194519 C105.1456632 208.81596775 101.99521121 208.81410395 98.84472656 208.81469727 C94.813043 208.814799 90.78153509 208.80112914 86.74989319 208.78392506 C83.64261064 208.77279532 80.53537051 208.77077833 77.42807007 208.77130699 C75.94175611 208.77012903 74.45544098 208.76571755 72.96914673 208.75797462 C70.88946263 208.74815161 68.81015929 208.75106129 66.73046875 208.75708008 C64.95772583 208.75494255 64.95772583 208.75494255 63.14916992 208.75276184 C58.77208483 209.09640238 55.99781224 209.87343779 53.0625 213.1875 C51.58473782 217.09922343 52.42457903 219.20466767 54 223 C57.62350865 225.41567243 59.35845945 225.27167715 63.67456055 225.31884766 C64.347995 225.32889328 65.02142944 225.3389389 65.715271 225.34928894 C67.93907831 225.38015604 70.16276504 225.39716551 72.38671875 225.4140625 C73.92943868 225.43277135 75.47214835 225.45234456 77.0148468 225.4727478 C81.07376052 225.52410506 85.13270742 225.56371143 89.19177246 225.60089111 C93.33431228 225.64090831 97.47671361 225.69201105 101.61914062 225.7421875 C109.74599919 225.83898931 117.87292622 225.92338035 126 226 C125.85006877 228.56070255 125.69741831 231.12119486 125.54321289 233.68164062 C125.50131081 234.40208557 125.45940872 235.12253052 125.41623688 235.86480713 C125.0945221 241.15652889 124.52321198 246.30516176 123.4375 251.5 C123.18250732 252.72976563 123.18250732 252.72976563 122.92236328 253.984375 C115.50606609 287.6570107 99.36462702 315.94636379 76 341 C75.30261719 341.75152344 74.60523438 342.50304687 73.88671875 343.27734375 C44.47374042 373.87329379 -0.07803577 392.16467092 -42.265625 393.203125 C-72.04079132 393.53961569 -99.9574539 388.88271683 -127 376 C-127.6590332 375.68836914 -128.31806641 375.37673828 -128.99707031 375.05566406 C-147.5647832 366.11705546 -164.89524947 353.01405229 -179 338 C-179 337.34 -179 336.68 -179 336 C-179.66 336 -180.32 336 -181 336 C-182.75878802 334.01831003 -184.38749546 332.03422683 -186 329.9375 C-186.48766846 329.3077124 -186.97533691 328.6779248 -187.4777832 328.02905273 C-203.92657991 306.5289042 -215.74428883 283.25847595 -221.9375 256.75 C-222.12465576 255.96165771 -222.31181152 255.17331543 -222.50463867 254.36108398 C-224.50220972 245.03939675 -225.1412069 235.47999179 -226 226 C-225.15697327 225.99635437 -224.31394653 225.99270874 -223.44537354 225.98895264 C-215.49966595 225.95108216 -207.55436921 225.89424051 -199.60895157 225.81609726 C-195.52411545 225.7765918 -191.43949589 225.74441863 -187.35449219 225.72900391 C-183.41200324 225.71385714 -179.47010951 225.67944794 -175.52788544 225.63169098 C-174.02405725 225.61685653 -172.5201441 225.6089578 -171.01624298 225.60811615 C-168.9089466 225.60575073 -166.80330091 225.57871062 -164.69628906 225.54589844 C-163.49715881 225.53701599 -162.29802856 225.52813354 -161.06256104 225.51898193 C-157.4101885 224.90005048 -156.25435471 223.8754859 -154 221 C-152.77233981 218.28160958 -152.92116665 217.25469236 -153.8125 214.375 C-155.07689377 211.84621245 -156.00488733 210.35533136 -158.72489929 209.38407898 C-161.64297161 208.89145453 -164.44121184 208.86461342 -167.40161133 208.85473633 C-168.70008499 208.84835648 -169.99855865 208.84197662 -171.33638 208.83540344 C-172.75159671 208.83387442 -174.16681391 208.83276065 -175.58203125 208.83203125 C-177.03928154 208.82881595 -178.49653151 208.82545167 -179.95378113 208.82194519 C-183.00768786 208.81596153 -186.06156633 208.81410446 -189.11547852 208.81469727 C-193.01583922 208.81479873 -196.91601724 208.80115953 -200.81633472 208.78392506 C-203.82676515 208.7727681 -206.83715196 208.77077921 -209.84760094 208.77130699 C-211.2848136 208.77013195 -212.72202756 208.76573701 -214.15921974 208.75797462 C-216.17619072 208.74810246 -218.19321552 208.75233554 -220.21020508 208.75708008 C-221.35507889 208.75565506 -222.4999527 208.75423004 -223.67951965 208.75276184 C-230.69299558 209.2749751 -235.1350694 211.1350694 -240 216 C-244.44829598 224.95965498 -241.8175162 236.4407043 -240.375 245.9375 C-240.10768066 247.69803711 -240.10768066 247.69803711 -239.83496094 249.49414062 C-231.79502527 299.5838921 -203.38001905 343.96217028 -162.625 373.8125 C-132.46679421 395.32687661 -97.72906082 407.37695093 -60.80078125 409.7890625 C-59 410 -59 410 -58 411 C-57.89958543 413.61150288 -57.86382943 416.19658365 -57.87060547 418.80859375 C-57.86797699 420.03535324 -57.86797699 420.03535324 -57.86529541 421.28689575 C-57.86087615 424.0037851 -57.86381514 426.72060993 -57.8671875 429.4375 C-57.86651448 431.31697604 -57.86554447 433.19645199 -57.86428833 435.07592773 C-57.86281126 439.02035346 -57.86496621 442.96475658 -57.86962891 446.90917969 C-57.8753262 451.97712503 -57.87204724 457.04501742 -57.86605644 462.11296082 C-57.86245108 465.99556887 -57.8635893 469.87816428 -57.86618423 473.76077271 C-57.86685357 475.62997443 -57.86602484 477.49917728 -57.86370468 479.36837769 C-57.86117857 481.97608504 -57.86501816 484.58370541 -57.87060547 487.19140625 C-57.86858124 487.97170197 -57.86655701 488.75199768 -57.86447144 489.55593872 C-57.88573747 494.88573747 -57.88573747 494.88573747 -59 496 C-67.32366647 496.56592006 -75.47390836 495.6400303 -83.6875 494.375 C-84.8530542 494.19678711 -86.0186084 494.01857422 -87.21948242 493.83496094 C-131.26668008 486.8054885 -172.35861743 469.26715975 -207 441 C-207.61568848 440.50000488 -208.23137695 440.00000977 -208.86572266 439.48486328 C-221.83109391 428.87683226 -233.73188349 417.2582823 -244 404 C-244.78632813 403.01902344 -245.57265625 402.03804688 -246.3828125 401.02734375 C-270.64054479 370.54955732 -286.73761405 334.62356743 -294.8125 296.625 C-295.00739014 295.71210205 -295.20228027 294.7992041 -295.40307617 293.85864258 C-298.62857754 277.80505641 -299.40817296 261.95966811 -299.375 245.625 C-299.37445618 244.6142038 -299.37391235 243.60340759 -299.37335205 242.5619812 C-299.29820588 212.11185154 -293.93461752 183.45493565 -283 155 C-282.6280249 154.00105713 -282.6280249 154.00105713 -282.24853516 152.98193359 C-275.13715103 133.96800159 -265.03662657 116.31085722 -253 100 C-252.57477051 99.41927734 -252.14954102 98.83855469 -251.71142578 98.24023438 C-246.60507692 91.30612281 -241.15718246 84.78031964 -235.28515625 78.47265625 C-233.37096117 76.40139901 -231.55412389 74.29085299 -229.75 72.125 C-219.60535111 60.5412265 -207.43073481 50.98955799 -195 42 C-194.38576172 41.5555957 -193.77152344 41.11119141 -193.13867188 40.65332031 C-163.55033177 19.52575144 -127.92173825 4.60421254 -92 -1 C-91.15131348 -1.14663086 -90.30262695 -1.29326172 -89.42822266 -1.44433594 C-59.95120419 -6.47897821 -29.33996345 -5.29243986 0 0 Z M-112 137 C-116.21641756 142.53404804 -115.71673271 149.34578837 -115 156 C-113.30958306 162.20825745 -109.37229059 166.58801268 -104 170 C-98.06231226 172.97427137 -92.42933582 173.85329609 -86 172 C-78.94583537 168.87342886 -73.63111997 163.75866776 -70.5625 156.6875 C-69.54200485 149.99758734 -69.85362808 143.45432591 -73.640625 137.6640625 C-78.90896847 131.21488342 -84.02087561 127.78672689 -92.375 126.6875 C-100.60840773 127.66766759 -106.38865658 130.92763071 -112 137 Z M-22 134 C-26.84030108 140.46245604 -28.71996785 145.93636004 -28 154 C-26.56756844 160.22600172 -23.59361203 165.53872962 -18.21484375 169.22265625 C-11.83213672 172.76296492 -5.45503512 173.95693277 1.625 171.9375 C8.38403699 169.31881551 13.38080381 164.94006643 16.34375 158.2734375 C18.02206883 152.45926154 17.59326794 146.90470234 15.8125 141.1875 C12.0508038 134.57210324 8.17216597 130.50251834 1 128 C-7.80120038 125.75353976 -15.05289606 128.28793676 -22 134 Z " fill="#507FFD" transform="translate(299,4)"/>
<path d="M0 0 C2.04949505 0.22772167 4.09898165 0.45551951 6.1484375 0.68359375 C8.15352103 0.90607562 10.15874222 1.12731859 12.1640625 1.34765625 C15.6098736 1.72741501 19.05495151 2.113389 22.5 2.5 C23.69109375 2.63019531 24.8821875 2.76039063 26.109375 2.89453125 C27.23859375 3.02214844 28.3678125 3.14976562 29.53125 3.28125 C30.55798828 3.39533203 31.58472656 3.50941406 32.64257812 3.62695312 C35 4 35 4 36 5 C36.09509559 7.61688441 36.12556 10.207289 36.11352539 12.82446289 C36.11367142 13.64390884 36.11381744 14.4633548 36.1139679 15.30763245 C36.11326852 18.02933353 36.10547501 20.75096705 36.09765625 23.47265625 C36.09579216 25.35452741 36.09436821 27.23639906 36.09336853 29.11827087 C36.08954267 34.08148529 36.07971181 39.04467064 36.06866455 44.00787354 C36.0584519 49.06839606 36.05387122 54.12892327 36.04882812 59.18945312 C36.0380896 69.12631488 36.02101236 79.06315503 36 89 C35.01 89.495 35.01 89.495 34 90 C34 61.95 34 33.9 34 5 C27.4 5 20.8 5 14 5 C13.67 4.67 13.34 4.34 13 4 C11.14712498 3.92773498 9.29166122 3.9161878 7.4375 3.9375 C6.42558594 3.94652344 5.41367188 3.95554687 4.37109375 3.96484375 C3.58863281 3.97644531 2.80617187 3.98804688 2 4 C2.33 3.34 2.66 2.68 3 2 C2.01 1.34 1.02 0.68 0 0 Z " fill="#557AD3" transform="translate(205,410)"/>
<path d="M0 0 C0.69787628 -0.00335861 1.39575256 -0.00671722 2.11477661 -0.01017761 C4.42158792 -0.01967653 6.7283266 -0.02163003 9.03515625 -0.02270508 C10.63793976 -0.02591783 12.24072297 -0.02928191 13.84350586 -0.03279114 C17.20264364 -0.03877934 20.5617557 -0.0406313 23.92089844 -0.04003906 C28.22859869 -0.03993733 32.53613453 -0.05360264 36.84379578 -0.07081127 C40.15345012 -0.08191897 43.46306452 -0.08395867 46.7727356 -0.08342934 C48.36118131 -0.08461081 49.94962802 -0.08904192 51.53805542 -0.0967617 C53.75725912 -0.10653915 55.97610323 -0.10369289 58.1953125 -0.09765625 C59.45867432 -0.09908127 60.72203613 -0.10050629 62.02368164 -0.10197449 C65.09765625 0.14526367 65.09765625 0.14526367 68.09765625 2.14526367 C66.80552467 2.13860184 66.80552467 2.13860184 65.48728943 2.13180542 C57.35145444 2.09165692 49.21565294 2.06124282 41.07974148 2.04163933 C36.8974375 2.03122204 32.71521569 2.01710052 28.53295898 1.99438477 C24.49347696 1.97258291 20.45407377 1.9606796 16.41453743 1.95550919 C14.87683942 1.95182658 13.33914551 1.94463545 11.80148125 1.93380356 C9.64026593 1.91919078 7.47937236 1.91728977 5.31811523 1.91821289 C4.09011703 1.91377167 2.86211884 1.90933044 1.59690857 1.90475464 C-4.28046773 2.30871582 -9.01230042 3.88523479 -13.90234375 7.14526367 C-13.90234375 5.49526367 -13.90234375 3.84526367 -13.90234375 2.14526367 C-13.30421875 2.00088867 -12.70609375 1.85651367 -12.08984375 1.70776367 C-7.79304559 0.60287272 -4.49601802 0.01356532 0 0 Z " fill="#577DDC" transform="translate(73.90234375,210.854736328125)"/>
<path d="M0 0 C-2.64711524 2.08488287 -5.22123039 3.71737725 -8.265625 5.15625 C-9.07386719 5.53910156 -9.88210938 5.92195313 -10.71484375 6.31640625 C-11.55144531 6.70699219 -12.38804687 7.09757812 -13.25 7.5 C-14.07113281 7.89058594 -14.89226562 8.28117187 -15.73828125 8.68359375 C-29.92165941 15.35944686 -29.92165941 15.35944686 -34 14 C-32.10667466 13.18167278 -30.21022267 12.37057732 -28.3125 11.5625 C-27.25675781 11.11003906 -26.20101563 10.65757812 -25.11328125 10.19140625 C-22.38027471 9.14552545 -19.87957663 8.46479252 -17 8 C-17 7.34 -17 6.68 -17 6 C-15.68 6 -14.36 6 -13 6 C-13.33 5.01 -13.66 4.02 -14 3 C-9.47669209 -1.81513423 -6.01431461 -1.20548354 0 0 Z " fill="#5A81E7" transform="translate(338,373)"/>
<path d="M0 0 C0.33 1.32 0.66 2.64 1 4 C-1.07553648 4.5534764 -2.84365964 5 -5 5 C-5.99 5.66 -6.98 6.32 -8 7 C-11 9 -11 9 -13 9 C-13.268125 9.598125 -13.53625 10.19625 -13.8125 10.8125 C-15.00987475 13.01819033 -16.04478984 14.43583187 -18 16 C-18.99 16 -19.98 16 -21 16 C-21.45375 16.639375 -21.9075 17.27875 -22.375 17.9375 C-24 20 -24 20 -26.6875 20.75 C-27.450625 20.8325 -28.21375 20.915 -29 21 C-25.51242566 15.95294119 -21.00911688 12.85551115 -16.0625 9.375 C-15.26392578 8.80265625 -14.46535156 8.2303125 -13.64257812 7.640625 C-2.91904978 0 -2.91904978 0 0 0 Z " fill="#5A80E1" transform="translate(118,38)"/>
<path d="M0 0 C5.33333333 4 10.66666667 8 16 12 C14 12.66666667 12 13.33333333 10 14 C7 9.25 7 9.25 7 7 C4.69 6.67 2.38 6.34 0 6 C0 4.02 0 2.04 0 0 Z " fill="#5179E6" transform="translate(122,367)"/>
<path d="M0 0 C-3.63 1.32 -7.26 2.64 -11 4 C-10.67 4.66 -10.34 5.32 -10 6 C-15.44693314 6.09688221 -20.63904667 6.12862175 -26 5 C-26 4.67 -26 4.34 -26 4 C-25.44538086 3.88406494 -24.89076172 3.76812988 -24.31933594 3.64868164 C-21.79605555 3.12075566 -19.27302612 2.59163973 -16.75 2.0625 C-15.87730469 1.88009766 -15.00460937 1.69769531 -14.10546875 1.50976562 C-13.26113281 1.33251953 -12.41679687 1.15527344 -11.546875 0.97265625 C-10.77182617 0.81031494 -9.99677734 0.64797363 -9.19824219 0.48071289 C-7.00333926 0.02898373 -7.00333926 0.02898373 -4.90332031 -0.62329102 C-3 -1 -3 -1 0 0 Z " fill="#557CDF" transform="translate(304,408)"/>
<path d="M0 0 C0.82020418 2.88711871 1.16181621 5.50013311 1.1875 8.5 C1.20167969 9.2528125 1.21585938 10.005625 1.23046875 10.78125 C0.80311168 14.89546719 -1.10198675 17.2227373 -4 20 C-4.66 20.99 -5.32 21.98 -6 23 C-5.38334864 17.60607261 -4.12077204 12.71604717 -2.4375 7.5625 C-2.20353516 6.83095703 -1.96957031 6.09941406 -1.72851562 5.34570312 C-1.15732778 3.56219821 -0.57936877 1.78086417 0 0 Z " fill="#5A80DB" transform="translate(13,167)"/>
<path d="M0 0 C0.33 0.99 0.66 1.98 1 3 C0.01 4.485 0.01 4.485 -1 6 C-0.34 6.33 0.32 6.66 1 7 C-3.75 10 -3.75 10 -6 10 C-5.67 10.99 -5.34 11.98 -5 13 C-5.5775 13.20625 -6.155 13.4125 -6.75 13.625 C-9.81410544 15.49750888 -11.15539968 17.96958519 -13 21 C-13.66 20.67 -14.32 20.34 -15 20 C-10 13.33333333 -5 6.66666667 0 0 Z " fill="#597FDD" transform="translate(59,87)"/>
<path d="M0 0 C1.81242052 -0.02687279 3.62495233 -0.04633715 5.4375 -0.0625 C6.44683594 -0.07410156 7.45617187 -0.08570313 8.49609375 -0.09765625 C11 0 11 0 12 1 C14.53049402 1.07313567 17.03304837 1.09247527 19.5625 1.0625 C20.62887695 1.05573242 20.62887695 1.05573242 21.71679688 1.04882812 C23.47790013 1.03700864 25.23896036 1.01907263 27 1 C27 1.99 27 2.98 27 4 C20.60348741 4.15366997 14.72301098 3.64846374 8.4375 2.5 C7.61958984 2.35691406 6.80167969 2.21382813 5.95898438 2.06640625 C3.97145496 1.71771688 1.98554104 1.35983915 0 1 C0 0.67 0 0.34 0 0 Z " fill="#5D80DC" transform="translate(201,495)"/>
<path d="M0 0 C0.99 0 1.98 0 3 0 C3.28875 0.763125 3.5775 1.52625 3.875 2.3125 C5.57473177 6.37297035 7.00360213 8.26822759 11 10 C11 10.66 11 11.32 11 12 C11.99 12.66 12.98 13.32 14 14 C14.6875 16.625 14.6875 16.625 15 19 C8.71943916 14.4908794 4.25180791 8.39660878 0 2 C0 1.34 0 0.68 0 0 Z " fill="#5A7EE1" transform="translate(104,320)"/>
<path d="M0 0 C2 3 2 3 1.625 5.23828125 C1.41875 6.14964844 1.2125 7.06101563 1 8 C0.95698411 10.39544714 0.95961234 12.79200711 1 15.1875 C1.11043566 21.77912867 1.11043566 21.77912867 0 24 C-0.99 24 -1.98 24 -3 24 C-2.01 16.08 -1.02 8.16 0 0 Z " fill="#567DE0" transform="translate(3,205)"/>
<path d="M0 0 C2.97 0.33 5.94 0.66 9 1 C9 1.66 9 2.32 9 3 C13.95 1.515 13.95 1.515 19 0 C19.33 0.66 19.66 1.32 20 2 C19.34 2 18.68 2 18 2 C18.33 3.65 18.66 5.3 19 7 C12.51292846 5.3186083 6.2322365 3.46937673 0 1 C0 0.67 0 0.34 0 0 Z " fill="#5981E4" transform="translate(156,482)"/>
<path d="M0 0 C0.66 0 1.32 0 2 0 C2 0.66 2 1.32 2 2 C2.66 2 3.32 2 4 2 C4.33 8.93 4.66 15.86 5 23 C3.02 23.99 1.04 24.98 -1 26 C-0.690625 25.236875 -0.38125 24.47375 -0.0625 23.6875 C3.05670714 15.79774077 2.83170918 7.96418206 0 0 Z " fill="#5A7DE1" transform="translate(313,142)"/>
<path d="M0 0 C-1 3 -1 3 -3.00390625 4.02734375 C-3.84824219 4.32769531 -4.69257813 4.62804687 -5.5625 4.9375 C-8.99923666 6.20781241 -12.21241031 7.57406876 -15.4375 9.3125 C-19 11 -19 11 -22 10 C-19.23116804 8.51706418 -16.4596027 7.03931138 -13.6875 5.5625 C-12.90181641 5.14162109 -12.11613281 4.72074219 -11.30664062 4.28710938 C-10.54931641 3.88427734 -9.79199219 3.48144531 -9.01171875 3.06640625 C-8.31522217 2.69459229 -7.61872559 2.32277832 -6.90112305 1.93969727 C-4.5842399 0.79449587 -2.60649356 0 0 0 Z " fill="#5B80DE" transform="translate(148,22)"/>
<path d="M0 0 C1.485 0.99 1.485 0.99 3 2 C3 2.99 3 3.98 3 5 C3.99 5 4.98 5 6 5 C6.66 4.34 7.32 3.68 8 3 C9.25541557 6.76624671 8.37061958 8.37188934 7 12 C7.66 12 8.32 12 9 12 C9.33 13.65 9.66 15.3 10 17 C6.81321628 14.07647233 4.78276705 11.18387159 2.75 7.375 C1.96882813 5.93253906 1.96882813 5.93253906 1.171875 4.4609375 C0 2 0 2 0 0 Z " fill="#597CE2" transform="translate(29,367)"/>
<path d="M0 0 C1.32 0.66 2.64 1.32 4 2 C1.03 4.97 -1.94 7.94 -5 11 C-5.66 10.67 -6.32 10.34 -7 10 C-6.67 8.68 -6.34 7.36 -6 6 C-5.34 6 -4.68 6 -4 6 C-3.67 4.35 -3.34 2.7 -3 1 C-2.34 1.33 -1.68 1.66 -1 2 C-0.67 1.34 -0.34 0.68 0 0 Z " fill="#5881EA" transform="translate(428,421)"/>
<path d="M0 0 C3.125 -0.1875 3.125 -0.1875 6 0 C3.68116787 4.50884026 0.93548431 6.93906776 -3 10 C-2.25 3.375 -2.25 3.375 0 0 Z " fill="#577FEC" transform="translate(435,411)"/>
<path d="M0 0 C1.32 1.65 2.64 3.3 4 5 C3.01 6.485 3.01 6.485 2 8 C1.34 8 0.68 8 0 8 C-1.32 11.3 -2.64 14.6 -4 18 C-4.66 18 -5.32 18 -6 18 C-4.23536928 11.89262558 -2.30442525 5.92566493 0 0 Z " fill="#587CDA" transform="translate(433,280)"/>
<path d="M0 0 C-6.44985438 3.52888584 -13.74446344 4.31545811 -21 4 C-20.67 3.34 -20.34 2.68 -20 2 C-17.03 2 -14.06 2 -11 2 C-11 1.34 -11 0.68 -11 0 C-6.94952424 -1.35015859 -4.2079832 -0.62084998 0 0 Z " fill="#5D82E4" transform="translate(309,493)"/>
<path d="M0 0 C0.55945313 0.17015625 1.11890625 0.3403125 1.6953125 0.515625 C9.10785935 2.75607324 16.55068688 4.88542553 24 7 C24 7.33 24 7.66 24 8 C16.5403037 7.25403037 9.31048782 5.63253871 2 4 C2 3.34 2 2.68 2 2 C1.34 2 0.68 2 0 2 C0 1.34 0 0.68 0 0 Z " fill="#577BD9" transform="translate(177,401)"/>
<path d="M0 0 C9.102128 0.51856202 18.01282114 1.46232654 27 3 C27 3.33 27 3.66 27 4 C22.05 4 17.1 4 12 4 C12 3.34 12 2.68 12 2 C11.30132812 2.02320313 10.60265625 2.04640625 9.8828125 2.0703125 C8.97273438 2.08835938 8.06265625 2.10640625 7.125 2.125 C6.22007812 2.14820313 5.31515625 2.17140625 4.3828125 2.1953125 C2 2 2 2 0 0 Z " fill="#5A7DD9" transform="translate(272,1)"/>
<path d="M0 0 C0.763125 0.309375 1.52625 0.61875 2.3125 0.9375 C4.18789677 1.67893593 6.08684652 2.36228217 8 3 C8.33 2.34 8.66 1.68 9 1 C9 1.99 9 2.98 9 4 C10.32 4 11.64 4 13 4 C13.66 5.65 14.32 7.3 15 9 C9.26800429 7.53025751 4.66416601 4.55513098 0 1 C0 0.67 0 0.34 0 0 Z " fill="#597DE4" transform="translate(153,368)"/>
<path d="M0 0 C0.66 0 1.32 0 2 0 C2.33 0.66 2.66 1.32 3 2 C5.02463255 2.65213292 5.02463255 2.65213292 7 3 C6.40072174 6.35595828 5.15377564 8.37801226 3 11 C2.49384702 9.73160474 1.99530901 8.46016898 1.5 7.1875 C1.2215625 6.47980469 0.943125 5.77210938 0.65625 5.04296875 C0 3 0 3 0 0 Z " fill="#5680ED" transform="translate(81,272)"/>
<path d="M0 0 C1.35439668 2.70879335 1.06501451 5.00933268 1 8 C0.01 8 -0.98 8 -2 8 C-2.928125 9.7015625 -2.928125 9.7015625 -3.875 11.4375 C-5.75 14.875 -5.75 14.875 -8 16 C-6.42986223 10.03347646 -3.24970218 5.17090975 0 0 Z " fill="#5C80E2" transform="translate(36,119)"/>
<path d="M0 0 C0 3.6408385 -1.10652063 4.94130256 -3 8 C-3.350625 8.9075 -3.70125 9.815 -4.0625 10.75 C-5 13 -5 13 -7 14 C-7.99 13.34 -8.98 12.68 -10 12 C-6.7 8.04 -3.4 4.08 0 0 Z " fill="#577DE4" transform="translate(403,338)"/>
<path d="M0 0 C2.74792483 3.40219265 6 7.48464588 6 12 C3.69 11.34 1.38 10.68 -1 10 C-0.835 9.0925 -0.67 8.185 -0.5 7.25 C0.10137146 3.88912497 0.10137146 3.88912497 0 0 Z " fill="#557CE9" transform="translate(75,306)"/>
<path d="M0 0 C-1.15173355 2.46800047 -2.04783565 4.04783565 -4 6 C-4.5775 5.835 -5.155 5.67 -5.75 5.5 C-8.15006126 4.76418945 -8.15006126 4.76418945 -11 6 C-14.13349732 7.04449911 -14.98968256 6.93423645 -18 6 C-15.37646482 4.99600476 -12.75132205 3.99665555 -10.125 3 C-9.37863281 2.71382813 -8.63226563 2.42765625 -7.86328125 2.1328125 C-2.2265625 0 -2.2265625 0 0 0 Z " fill="#577CDA" transform="translate(326,399)"/>
<path d="M0 0 C2.31 0.66 4.62 1.32 7 2 C4.45217026 4.97246802 1.54659117 6.41535288 -2 8 C-2.66 8 -3.32 8 -4 8 C-3.67 7.01 -3.34 6.02 -3 5 C-2.34 5 -1.68 5 -1 5 C-0.67 3.35 -0.34 1.7 0 0 Z " fill="#5981E9" transform="translate(365,466)"/>
<path d="M0 0 C0.66 0.33 1.32 0.66 2 1 C0.52504318 3.33609323 -0.95468745 5.66890167 -2.4375 8 C-2.85837891 8.66773438 -3.27925781 9.33546875 -3.71289062 10.0234375 C-4.78188817 11.69962565 -5.88802605 13.35200837 -7 15 C-7.33 15 -7.66 15 -8 15 C-8 13.35 -8 11.7 -8 10 C-7.01 10 -6.02 10 -5 10 C-5 9.01 -5 8.02 -5 7 C-4.34 7 -3.68 7 -3 7 C-2.67 5.35 -2.34 3.7 -2 2 C-1.34 2 -0.68 2 0 2 C0 1.34 0 0.68 0 0 Z " fill="#5B7DDD" transform="translate(399,310)"/>
<path d="M0 0 C2.0625 2.1875 2.0625 2.1875 4 5 C3.75 7.8125 3.75 7.8125 3 10 C0.69 8.02 -1.62 6.04 -4 4 C-3.67 3.34 -3.34 2.68 -3 2 C-2.01 2 -1.02 2 0 2 C0 1.34 0 0.68 0 0 Z " fill="#557EEB" transform="translate(124,338)"/>
<path d="M0 0 C-2.28560647 1.5306999 -4.57762667 3.04965044 -6.875 4.5625 C-7.52597656 5.00013672 -8.17695313 5.43777344 -8.84765625 5.88867188 C-10.52625497 6.98754836 -12.26023387 8.0007818 -14 9 C-14.66 8.67 -15.32 8.34 -16 8 C-14.61019248 6.86756424 -13.21285323 5.74436881 -11.8125 4.625 C-11.03519531 3.99851562 -10.25789063 3.37203125 -9.45703125 2.7265625 C-3.25842697 -1.62921348 -3.25842697 -1.62921348 0 0 Z " fill="#5F82DC" transform="translate(390,458)"/>
<path d="M0 0 C0 0.99 0 1.98 0 3 C-1.66666667 4.66666667 -3.33333333 6.33333333 -5 8 C-5.33 8.9075 -5.66 9.815 -6 10.75 C-6.33 11.4925 -6.66 12.235 -7 13 C-9.625 13.8125 -9.625 13.8125 -12 14 C-8.34161026 8.88863277 -4.55388068 4.33702922 0 0 Z " fill="#5886DC" transform="translate(74,71)"/>
<path d="M0 0 C5.45111321 2.58210626 10.17518523 5.38138892 15 9 C13 10 13 10 9 10 C9 9.34 9 8.68 9 8 C8.34 7.67 7.68 7.34 7 7 C6.54625 6.525625 6.0925 6.05125 5.625 5.5625 C3.87375724 3.87861273 2.20509693 2.98849173 0 2 C0 1.34 0 0.68 0 0 Z " fill="#597AE1" transform="translate(379,36)"/>
<path d="M0 0 C5.94 0.33 11.88 0.66 18 1 C18 1.33 18 1.66 18 2 C11.95170514 2.89604368 6.1105424 3.11269443 0 3 C0 2.01 0 1.02 0 0 Z " fill="#5E80DE" transform="translate(270,496)"/>
<path d="M0 0 C0.66 0 1.32 0 2 0 C2.69965443 1.26418246 3.38434763 2.53665402 4.0625 3.8125 C4.44535156 4.52019531 4.82820312 5.22789062 5.22265625 5.95703125 C6 8 6 8 5 11 C4.60167969 10.52949219 4.20335937 10.05898437 3.79296875 9.57421875 C3.26316406 8.95160156 2.73335937 8.32898438 2.1875 7.6875 C1.66542969 7.07261719 1.14335937 6.45773438 0.60546875 5.82421875 C-0.87172469 4.14575321 -2.40039131 2.56117966 -4 1 C-2.68 1.33 -1.36 1.66 0 2 C0 1.34 0 0.68 0 0 Z " fill="#587EDF" transform="translate(220,132)"/>
<path d="M0 0 C0.02725341 1.7290774 0.04650987 3.45828176 0.0625 5.1875 C0.07410156 6.15042969 0.08570313 7.11335937 0.09765625 8.10546875 C0.00486622 10.85576513 -0.37888315 13.32479591 -1 16 C-1.33 16 -1.66 16 -2 16 C-1.97679687 15.40832031 -1.95359375 14.81664062 -1.9296875 14.20703125 C-1.82588536 9.66198041 -1.86291643 6.14059941 -4 2 C-1 0 -1 0 0 0 Z " fill="#547FE8" transform="translate(423,241)"/>
<path d="M0 0 C0.99 0.33 1.98 0.66 3 1 C1.70700306 3.88437779 0.34058637 5.87219421 -2 8 C-2.99 6.02 -3.98 4.04 -5 2 C-4.34 2 -3.68 2 -3 2 C-2.67 2.33 -2.34 2.66 -2 3 C-1.34 2.01 -0.68 1.02 0 0 Z " fill="#577FF1" transform="translate(100,304)"/>
<path d="M0 0 C0 0.66 0 1.32 0 2 C1.32 2.33 2.64 2.66 4 3 C0.72814447 4.07310858 -1.42947592 3.89263102 -4.75 3.0625 C-5.54921875 2.86785156 -6.3484375 2.67320312 -7.171875 2.47265625 C-7.77515625 2.31667969 -8.3784375 2.16070312 -9 2 C-5.5647952 -0.29013653 -4.014669 -0.17842973 0 0 Z " fill="#5983E1" transform="translate(196,491)"/>
<path d="M0 0 C-1.95649397 0.83764268 -3.91525556 1.66999059 -5.875 2.5 C-7.51082031 3.19609375 -7.51082031 3.19609375 -9.1796875 3.90625 C-12 5 -12 5 -14 5 C-13 2 -13 2 -11.07421875 1.015625 C-9.89279297 0.63664062 -9.89279297 0.63664062 -8.6875 0.25 C-7.51767578 -0.14445312 -7.51767578 -0.14445312 -6.32421875 -0.546875 C-3.83078909 -1.03298902 -2.3818103 -0.80665429 0 0 Z " fill="#5986E0" transform="translate(355,478)"/>
<path d="M0 0 C4.50802601 1.25805377 7.4912812 2.90407165 11 6 C8.69 6.33 6.38 6.66 4 7 C3.34 6.01 2.68 5.02 2 4 C2.33 3.34 2.66 2.68 3 2 C2.01 1.67 1.02 1.34 0 1 C0 0.67 0 0.34 0 0 Z " fill="#597BE6" transform="translate(368,30)"/>
<path d="M0 0 C0.99 0 1.98 0 3 0 C3.185625 1.2065625 3.185625 1.2065625 3.375 2.4375 C3.58125 3.283125 3.7875 4.12875 4 5 C4.66 5.33 5.32 5.66 6 6 C7.6875 8.4375 7.6875 8.4375 9 11 C8.67 11.66 8.34 12.32 8 13 C6.66094733 11.2126038 5.32890934 9.41995047 4 7.625 C3.2575 6.62726563 2.515 5.62953125 1.75 4.6015625 C0 2 0 2 0 0 Z " fill="#5C7EDD" transform="translate(43,390)"/>
<path d="M0 0 C3.26008643 3.16952847 6.22237877 6.39937989 9 10 C8.67 10.66 8.34 11.32 8 12 C4.5659298 10.61482883 3.29977978 9.34555636 1.75 6 C1.41484375 5.29875 1.0796875 4.5975 0.734375 3.875 C0 2 0 2 0 0 Z " fill="#577AD7" transform="translate(90,332)"/>
<path d="M0 0 C0.66 0 1.32 0 2 0 C4.41685712 4.22949995 5.34833144 7.12335991 5 12 C4.01 12.495 4.01 12.495 3 13 C2.01 8.71 1.02 4.42 0 0 Z " fill="#5980E0" transform="translate(226,143)"/>
<path d="M0 0 C2.96052484 3.36423277 3.92289822 6.69159287 5 11 C3.68 10.67 2.36 10.34 1 10 C1 7.69 1 5.38 1 3 C0.34 3 -0.32 3 -1 3 C-0.67 2.01 -0.34 1.02 0 0 Z " fill="#5977E4" transform="translate(474,139)"/>
<path d="M0 0 C0.33 1.32 0.66 2.64 1 4 C-1.07553648 4.5534764 -2.84365964 5 -5 5 C-6.34882408 5.63474075 -7.6846659 6.29848848 -9 7 C-7.4576387 2.93377477 -4.5679954 0 0 0 Z " fill="#5179E6" transform="translate(118,38)"/>
<path d="M0 0 C0.66 0.33 1.32 0.66 2 1 C0.02 3.97 -1.96 6.94 -4 10 C-5.04449911 6.86650268 -4.93423645 6.01031744 -4 3 C-3.34 3 -2.68 3 -2 3 C-2 2.34 -2 1.68 -2 1 C-1.34 0.67 -0.68 0.34 0 0 Z " fill="#5C7EE1" transform="translate(462,380)"/>
<path d="M0 0 C0.81788791 2.89558705 1.18892672 5.55464087 1.25 8.5625 C1.27578125 9.32691406 1.3015625 10.09132812 1.328125 10.87890625 C0.92308006 13.49723244 0.00903813 14.34518701 -2 16 C-1.85890014 13.89551062 -1.71195825 11.7914123 -1.5625 9.6875 C-1.48128906 8.51574219 -1.40007813 7.34398437 -1.31640625 6.13671875 C-1 3 -1 3 0 0 Z " fill="#5582EB" transform="translate(13,167)"/>
<path d="M0 0 C-3.53411321 2.12046792 -6.94393835 2.53199289 -11 3 C-10.67 2.01 -10.34 1.02 -10 0 C-6.30581799 -1.231394 -3.7943739 -0.64432764 0 0 Z " fill="#6081E3" transform="translate(320,490)"/>
<path d="M0 0 C1.29315061 0.95632999 2.58446853 1.91513851 3.875 2.875 C4.59429687 3.40867188 5.31359375 3.94234375 6.0546875 4.4921875 C8 6 8 6 10 8 C6.28400809 8.20086443 5.22791555 8.1519437 2 6 C0.8125 2.875 0.8125 2.875 0 0 Z " fill="#587ADB" transform="translate(187,167)"/>
<path d="M0 0 C0 3 0 3 -2.5 5.6875 C-3.325 6.450625 -4.15 7.21375 -5 8 C-5 6.02 -5 4.04 -5 2 C-3.35 1.34 -1.7 0.68 0 0 Z " fill="#5980EC" transform="translate(447,402)"/>
<path d="M0 0 C-2.62198774 2.15377564 -4.64404172 3.40072174 -8 4 C-8 2.68 -8 1.36 -8 0 C-4.71023192 -1.09658936 -3.28696233 -0.79953138 0 0 Z " fill="#5980E6" transform="translate(338,373)"/>
<path d="M0 0 C0.33 1.32 0.66 2.64 1 4 C1.99 4.33 2.98 4.66 4 5 C-0.75 9 -0.75 9 -3 9 C-2.01 6.03 -1.02 3.06 0 0 Z " fill="#567DE2" transform="translate(426,298)"/>
<path d="M0 0 C0.66 0.33 1.32 0.66 2 1 C2 2.98 2 4.96 2 7 C-0.31 7.33 -2.62 7.66 -5 8 C-4.360625 7.236875 -3.72125 6.47375 -3.0625 5.6875 C-0.85767219 3.11753287 -0.85767219 3.11753287 0 0 Z " fill="#567AE1" transform="translate(146,222)"/>
<path d="M0 0 C0.625 1.875 0.625 1.875 1 4 C-1.5654594 6.5654594 -3.47686668 6.54046087 -7 7 C-4.66666667 4.66666667 -2.33333333 2.33333333 0 0 Z " fill="#597DDE" transform="translate(374,368)"/>
<path d="M0 0 C2.93200474 2.85276137 5.64315404 5.65079784 8 9 C5.125 8.4375 5.125 8.4375 2 7 C0.625 3.375 0.625 3.375 0 0 Z " fill="#5778DB" transform="translate(103,348)"/>
<path d="M0 0 C6.57142857 5.14285714 6.57142857 5.14285714 8 9 C7.01 8.67 6.02 8.34 5 8 C5 7.34 5 6.68 5 6 C3.68 5.67 2.36 5.34 1 5 C0.67 3.35 0.34 1.7 0 0 Z " fill="#587BDE" transform="translate(432,79)"/>
<path d="M0 0 C0.33 1.32 0.66 2.64 1 4 C-3.455 4.495 -3.455 4.495 -8 5 C-3 0 -3 0 0 0 Z " fill="#5C7EE5" transform="translate(126,33)"/>
<path d="M0 0 C1 2 1 2 1 6 C-1.76264289 6.59732819 -4.16032769 7 -7 7 C-4.69 4.69 -2.38 2.38 0 0 Z " fill="#567CDE" transform="translate(383,360)"/>
<path d="M0 0 C2.625 -0.1875 2.625 -0.1875 5 0 C0.375 4.875 0.375 4.875 -3 6 C-2 3 -2 3 0 0 Z " fill="#5781E3" transform="translate(358,355)"/>
<path d="M0 0 C0.66 0.33 1.32 0.66 2 1 C2 2.32 2 3.64 2 5 C1.34 5 0.68 5 0 5 C-0.33 5.99 -0.66 6.98 -1 8 C-1.625 5.125 -1.625 5.125 -2 2 C-1.34 1.34 -0.68 0.68 0 0 Z " fill="#557EF2" transform="translate(26,353)"/>
<path d="M0 0 C2.72426311 2.35277269 3.8141763 4.62496331 5 8 C3.68 8 2.36 8 1 8 C0 2.25 0 2.25 0 0 Z " fill="#537AE0" transform="translate(81,318)"/>
<path d="M0 0 C1.32 1.65 2.64 3.3 4 5 C3.01 6.485 3.01 6.485 2 8 C1.01 8 0.02 8 -1 8 C-0.67 5.36 -0.34 2.72 0 0 Z " fill="#547EE7" transform="translate(433,280)"/>
<path d="M0 0 C0.33 0 0.66 0 1 0 C1 3.3 1 6.6 1 10 C0.34 10 -0.32 10 -1 10 C-1.33 10.66 -1.66 11.32 -2 12 C-1 3.42857143 -1 3.42857143 0 0 Z " fill="#5B7EDE" transform="translate(6,191)"/>
<path d="M0 0 C1.89213369 2.38573379 3.02391783 4.07175348 4 7 C2.125 7.625 2.125 7.625 0 8 C-0.66 7.34 -1.32 6.68 -2 6 C-1.34 4.02 -0.68 2.04 0 0 Z " fill="#547DE6" transform="translate(467,126)"/>
<path d="M0 0 C1 3 1 3 0.375 5.5 C-1.28533352 8.51878821 -2.95894512 9.47947256 -6 11 C-4.54955729 6.89041233 -2.48889248 3.56741255 0 0 Z " fill="#5A7ED8" transform="translate(43,108)"/>
<path d="M0 0 C1.32 0.33 2.64 0.66 4 1 C1.03 3.475 1.03 3.475 -2 6 C-2.66 4.68 -3.32 3.36 -4 2 C-3.34 1.67 -2.68 1.34 -2 1 C-2 1.66 -2 2.32 -2 3 C-1.34 3 -0.68 3 0 3 C0 2.01 0 1.02 0 0 Z " fill="#5A7EE8" transform="translate(412,437)"/>
<path d="M0 0 C0.66 0 1.32 0 2 0 C1.54917531 1.46067199 1.08906463 2.91848032 0.625 4.375 C0.36976563 5.18710937 0.11453125 5.99921875 -0.1484375 6.8359375 C-1 9 -1 9 -3 11 C-3 8.69 -3 6.38 -3 4 C-2.34 3.67 -1.68 3.34 -1 3 C-0.67 2.01 -0.34 1.02 0 0 Z " fill="#5B7FD9" transform="translate(479,346)"/>
<path d="M0 0 C1.46132217 2.92264434 2.34099246 4.92463146 3 8 C1.68 8.33 0.36 8.66 -1 9 C-0.67 6.03 -0.34 3.06 0 0 Z " fill="#5A7DE3" transform="translate(228,157)"/>
<path d="M0 0 C0.66 0.33 1.32 0.66 2 1 C-1.32307692 4.93846154 -1.32307692 4.93846154 -4.75 5.25 C-5.4925 5.1675 -6.235 5.085 -7 5 C-4.702779 3.25728062 -2.40133271 1.60088848 0 0 Z " fill="#567DDE" transform="translate(342,390)"/>
<path d="M0 0 C0.99 0.33 1.98 0.66 3 1 C1.02579865 3.52259061 0.03254358 3.9929808 -3.1875 4.6875 C-4.5796875 4.8421875 -4.5796875 4.8421875 -6 5 C-5.195625 4.360625 -4.39125 3.72125 -3.5625 3.0625 C-1.7249496 1.59396498 -1.7249496 1.59396498 0 0 Z " fill="#557EDC" transform="translate(357,381)"/>
<path d="M0 0 C0.33 0 0.66 0 1 0 C1 1.65 1 3.3 1 5 C-1.31 5.33 -3.62 5.66 -6 6 C-4 4 -2 2 0 0 Z " fill="#587EDC" transform="translate(311,168)"/>
<path d="M0 0 C2.9719385 1.12451727 5.33440687 2.22293791 8 4 C7.67 5.32 7.34 6.64 7 8 C6.401875 7.236875 5.80375 6.47375 5.1875 5.6875 C3.53040668 3.6516425 1.89702326 1.8021721 0 0 Z " fill="#597DD6" transform="translate(305,134)"/>
<path d="M0 0 C0 3 0 3 -2 5.1875 C-2.66 5.785625 -3.32 6.38375 -4 7 C-4 5.35 -4 3.7 -4 2 C-2.68 1.34 -1.36 0.68 0 0 Z " fill="#567FE1" transform="translate(389,326)"/>
<path d="M0 0 C1.32 0.33 2.64 0.66 4 1 C3.34 2.32 2.68 3.64 2 5 C0.68 5 -0.64 5 -2 5 C-1.34 3.35 -0.68 1.7 0 0 Z " fill="#5581F1" transform="translate(403,297)"/>
</svg>
